# xmcd
#
# Track frame offsets:
#	150
#	20332
#	32410
#	55058
#	74005
#	94676
#	131266
#	158751
#	182314
#	199069
#	229901
#
# Disc length: 3264 seconds
#
# Revision: 1
# Processed by: cddbd v1.5.2PL0 Copyright (c) Steve Scherf et al.
# Submitted via: audiograbber 1.83.01
#
DISCID=840cbe0b
DTITLE=Beth Hart and Joe Bonamassa - Don't Explain
DYEAR=2011
DGENRE=Blues
TTITLE0=Sinner's Prayer
TTITLE1=Chocolate Jesus 
TTITLE2=Your Heart Is As Black As Night
TTITLE3=For My Friends 
TTITLE4=Don't Explain 
TTITLE5=I'd Rather Go Blind 
TTITLE6=Something's Got A Hold On Me 
TTITLE7=I'll Take Care Of You 
TTITLE8=Well, Well 
TTITLE9=Ain't No Way 
TTITLE10=I'll Take Care Of You (Radio Edit)
EXTD=
EXTT0=
EXTT1=
EXTT2=
EXTT3=
EXTT4=
EXTT5=
EXTT6=
EXTT7=
EXTT8=
EXTT9=
EXTT10=
PLAYORDER=
